<svg width="290" height="137" viewBox="0 0 290 137" fill="none" xmlns="http://www.w3.org/2000/svg">
<path d="M1 36.7764V16C1 7.71572 7.71573 1 16 1H36.7764" stroke="white" stroke-width="2" stroke-linecap="round" stroke-linejoin="round"/>
<path d="M1 99.384V120.16C1 128.445 7.71573 135.16 16 135.16H36.7764" stroke="white" stroke-width="2" stroke-linecap="round" stroke-linejoin="round"/>
<path d="M289 36.7764V16C289 7.71572 282.284 1 274 1H253.224" stroke="white" stroke-width="2" stroke-linecap="round" stroke-linejoin="round"/>
<path d="M289 99.384V120.16C289 128.445 282.284 135.16 274 135.16H253.224" stroke="white" stroke-width="2" stroke-linecap="round" stroke-linejoin="round"/>
<g opacity="0.12">
<rect x="65" y="31" width="1" height="75" fill="white"/>
<rect x="69" y="31" width="1" height="75" fill="white"/>
<rect x="73" y="31" width="1" height="75" fill="white"/>
<rect x="77" y="31" width="1" height="75" fill="white"/>
<rect x="84" y="31" width="1" height="75" fill="white"/>
<rect x="88" y="31" width="1" height="75" fill="white"/>
<rect x="92" y="31" width="1" height="75" fill="white"/>
<rect x="96" y="31" width="1" height="75" fill="white"/>
<rect x="103" y="31" width="1" height="75" fill="white"/>
<rect x="110" y="31" width="1" height="75" fill="white"/>
<rect x="117" y="31" width="1" height="75" fill="white"/>
<rect x="121" y="31" width="1" height="75" fill="white"/>
<rect x="125" y="31" width="1" height="75" fill="white"/>
<rect x="132" y="31" width="1" height="75" fill="white"/>
<rect x="136" y="31" width="2" height="75" fill="white"/>
<rect x="144" y="31" width="1" height="75" fill="white"/>
<rect x="151" y="31" width="1" height="75" fill="white"/>
<rect x="155" y="31" width="1" height="75" fill="white"/>
<rect x="159" y="31" width="1" height="75" fill="white"/>
<rect x="166" y="31" width="1" height="75" fill="white"/>
<rect x="170" y="31" width="1" height="75" fill="white"/>
<rect x="177" y="31" width="1" height="75" fill="white"/>
<rect x="181" y="31" width="1" height="75" fill="white"/>
<rect x="185" y="31" width="1" height="75" fill="white"/>
<rect x="192" y="31" width="1" height="75" fill="white"/>
<rect x="196" y="31" width="1" height="75" fill="white"/>
<rect x="200" y="31" width="1" height="75" fill="white"/>
<rect x="207" y="31" width="1" height="75" fill="white"/>
<rect x="211" y="31" width="1" height="75" fill="white"/>
<rect x="215" y="31" width="1" height="75" fill="white"/>
<rect x="222" y="31" width="1" height="75" fill="white"/>
<rect x="226" y="31" width="2" height="75" fill="white"/>
</g>
</svg>
