<svg width="282" height="138" viewBox="0 0 282 138" fill="none" xmlns="http://www.w3.org/2000/svg">
<path d="M1 41.6667V22C1 13.7157 7.71573 7 16 7H35.6667" stroke="white" stroke-width="2" stroke-linecap="round" stroke-linejoin="round"/>
<path d="M1 102.333V122C1 130.284 7.71573 137 16 137H35.6667" stroke="white" stroke-width="2" stroke-linecap="round" stroke-linejoin="round"/>
<path d="M280.066 41.6667V22C280.066 13.7157 273.351 7 265.066 7H245.4" stroke="white" stroke-width="2" stroke-linecap="round" stroke-linejoin="round"/>
<path d="M280.066 102.333V122C280.066 130.284 273.351 137 265.066 137H245.4" stroke="white" stroke-width="2" stroke-linecap="round" stroke-linejoin="round"/>
<path opacity="0.21" fill-rule="evenodd" clip-rule="evenodd" d="M147.732 62.5577L147.732 74.5745L147.805 74.5746L147.805 124.98L210.275 124.981V137.008H135.849L135.849 136.996L135.778 136.996L135.778 75.7871L72.1059 75.7877V62.5577H147.732ZM120.114 88.9158V136.996H72.0332V88.9158H120.114ZM109.186 99.8432H82.9606V126.069H109.186V99.8432ZM209.029 62.5704V110.651H160.949V62.5704H209.029ZM120.114 0V48.0804H72.0332V0H120.114ZM209.029 0V48.0804H160.949V0H209.029ZM147.776 0V48.0804H135.921V0H147.776ZM109.186 10.9274H82.9606V37.1531H109.186V10.9274ZM198.102 10.9274H171.876V37.1531H198.102V10.9274Z" fill="#A4A3A3"/>
</svg>
